# xmcd
#
# Track frame offsets:
#	150
#	10843
#	23410
#	36352
#	49243
#	62571
#	72918
#	86220
#	97617
#	107017
#	119706
#	132395
#	148184
#	159179
#	171570
#	186114
#	200118
#	210865
#
# Disc length: 2990 seconds
#
# Revision: 0
# Processed by: cddbd v1.5.1PL0 Copyright (c) Steve Scherf et al.
# Submitted via: dBpowerAMP V4.0
#
DISCID=fd0bac12
DTITLE=Ray Charles - The Birth of Soul - Disc Three
DYEAR=1900
DGENRE=Blues
TTITLE0=Swanee River Rock
TTITLE1=That's Enough
TTITLE2=Talkin' About You
TTITLE3=What Kind of Man Are You
TTITLE4=I Want a Little Girl
TTITLE5=Yes Indeed (Stereo Version)
TTITLE6=I Had a Dream (Stereo Version)
TTITLE7=You Be My Baby (Stereo Version)
TTITLE8=Tell All the World About You (Stereo Version)
TTITLE9=My Bonnie (Stereo Version)
TTITLE10=Early in the Morning (Stereo Version)
TTITLE11=(Night Time Is) The Right Time (Stereo Version)
TTITLE12=Carryin' the Load (Stereo Version)
TTITLE13=Tell Me How Do You Feel (Stereo Version)
TTITLE14=What'd I Say (Stereo Version)
TTITLE15=Tell the Truth (Stereo Version)
TTITLE16=I'm Movin' On (Stereo Version)
TTITLE17=I Believe to My Soul (Stereo Version)
EXTD=
EXTT0=
EXTT1=
EXTT2=
EXTT3=
EXTT4=
EXTT5=
EXTT6=
EXTT7=
EXTT8=
EXTT9=
EXTT10=
EXTT11=
EXTT12=
EXTT13=
EXTT14=
EXTT15=
EXTT16=
EXTT17=
PLAYORDER=
